<svg id="Ebene_1" data-name="Ebene 1" xmlns="http://www.w3.org/2000/svg" viewBox="0 0 33.81 34.04"><defs><style>.cls-1{fill:#ffffff;}</style></defs><title>Unbenannt-2</title><path class="cls-1" d="M41.91,27.21l-0.61-8.84a2.14,2.14,0,0,0-4.28.17l0.07,7.2-3.12,4a2,2,0,0,1-2.07.7L35.3,26a1.9,1.9,0,0,0-.22-2.55,1.89,1.89,0,0,0-2.73.19l-5.13,6.18a5.61,5.61,0,0,0-1.29,3.63L26,41.68a0.6,0.6,0,0,0,.6.59h8.54a0.6,0.6,0,0,0,.59-0.65l-0.35-4,5.67-7.53A4.3,4.3,0,0,0,41.91,27.21Zm-1.81,2.16L34.3,37.09a0.6,0.6,0,0,0-.12.41l0.31,3.59H27.2l-0.07-7.61a4.42,4.42,0,0,1,1-2.86l5.13-6.18a0.7,0.7,0,0,1,1-.07,0.7,0.7,0,0,1,.08.94l-3.85,5a0.59,0.59,0,0,0,.14.86,3.2,3.2,0,0,0,4.27-.69l3.25-4.16a0.6,0.6,0,0,0,.13-0.37l-0.07-7.41a1,1,0,0,1,.88-1,1,1,0,0,1,1,.88l0.61,8.84A3.11,3.11,0,0,1,40.11,29.37Z" transform="translate(-8.11 -8.24)"/><path class="cls-1" d="M17.69,23.67A1.89,1.89,0,0,0,15,23.48,1.9,1.9,0,0,0,14.73,26l3.39,4.41a2,2,0,0,1-2.07-.7l-3.12-4L13,18.54a2.14,2.14,0,0,0-4.28-.17L8.12,27.21A4.3,4.3,0,0,0,9,30.09l5.67,7.53-0.35,4a0.6,0.6,0,0,0,.59.65h8.54a0.6,0.6,0,0,0,.6-0.59l0.08-8.2a5.6,5.6,0,0,0-1.29-3.63Zm5.15,17.41h-7.3l0.31-3.59a0.59,0.59,0,0,0-.12-0.41L9.93,29.37a3.11,3.11,0,0,1-.62-2.08l0.61-8.84a0.95,0.95,0,0,1,.94-0.88h0.07a1,1,0,0,1,.88,1l-0.07,7.41a0.6,0.6,0,0,0,.13.37l3.25,4.16a3.2,3.2,0,0,0,4.27.69,0.6,0.6,0,0,0,.14-0.86l-3.85-5a0.7,0.7,0,0,1,.08-0.94,0.7,0.7,0,0,1,1,.07l5.13,6.17a4.42,4.42,0,0,1,1,2.86Z" transform="translate(-8.11 -8.24)"/><path class="cls-1" d="M36.7,15a6.71,6.71,0,0,0-11.46-4.75L25,10.43l-0.23-.23A6.71,6.71,0,1,0,15.3,19.7L24.6,29a0.59,0.59,0,0,0,.84,0l9.3-9.3A6.67,6.67,0,0,0,36.7,15ZM25,27.73l-8.88-8.88A5.52,5.52,0,0,1,23.95,11L24.6,11.7a0.6,0.6,0,0,0,.84,0L26.09,11a5.52,5.52,0,1,1,7.81,7.81Z" transform="translate(-8.11 -8.24)"/></svg>