<svg id="Ebene_1" data-name="Ebene 1" xmlns="http://www.w3.org/2000/svg" viewBox="0 0 41.6 32.89"><defs><style>.cls-1{fill:#ffffff;}</style></defs><title>smartindustry</title><path class="cls-1" d="M45.19,39.78V31.07a0.73,0.73,0,0,0,.57-0.31,0.74,0.74,0,0,0,.08-0.68l-1.39-3.64A0.73,0.73,0,0,0,43.76,26H33.45V11.37a0.73,0.73,0,0,0-.73-0.73H23.26a0.73,0.73,0,0,0-.73.73v7.28H18.94V9.08a0.73,0.73,0,0,0-.73-0.73H15.29a0.73,0.73,0,0,0-.73.73v9.57H13.09V9.08a0.73,0.73,0,0,0-.73-0.73H9.44a0.73,0.73,0,0,0-.73.73v9.57H6.46a0.73,0.73,0,0,0-.68.47L4.38,22.76a0.73,0.73,0,0,0,.65,1v16a0.73,0.73,0,1,0,0,1.46H45.17A0.73,0.73,0,0,0,45.19,39.78ZM16,12.74h1.46v5.88H16V12.74Zm1.46-2.93v1.47H16V9.81h1.46Zm-7.31,2.93h1.46v5.88H10.17V12.74Zm1.46-2.93v1.47H10.17V9.81h1.46ZM43.26,27.43l0.83,2.18H33.45V27.43h9.81ZM24,12.11h8V39.78H24V12.11h0ZM16.71,23.74v4.34H12.31V23.74h4.41Zm5.81,0v4.34H18.18V23.74h4.35Zm0,10.21H18.18V29.54h4.35v4.41ZM10.85,28.08H6.49V23.75h4.35v4.34ZM6.49,29.54h4.35v4.41H6.49V29.54Zm5.82,0h4.41v4.41H12.31V29.54Zm4.41,5.87v4.37H12.31V35.41h4.41Zm1.46,0h4.35v4.37H18.18V35.41ZM7,20.11H22.52v2.17H6.13ZM6.49,35.41h4.35v4.37H6.49V35.41Zm34.29,4.37h-4.4V36.15h4.4v3.63Zm1.46,0V35.42a0.73,0.73,0,0,0-.73-0.73H35.65a0.73,0.73,0,0,0-.73.73v4.36H33.56v-8.7H43.73v8.7H42.24Z" transform="translate(-4.3 -8.35)"/><path class="cls-1" d="M27,17.19a0.73,0.73,0,0,0,.73-0.73V15a0.73,0.73,0,1,0-1.46,0v1.44A0.73,0.73,0,0,0,27,17.19Z" transform="translate(-4.3 -8.35)"/><path class="cls-1" d="M29.11,17.19a0.73,0.73,0,0,0,.73-0.73V15a0.73,0.73,0,0,0-1.46,0v1.44A0.73,0.73,0,0,0,29.11,17.19Z" transform="translate(-4.3 -8.35)"/><path class="cls-1" d="M27,22.35a0.73,0.73,0,0,0,.73-0.73V20.18a0.73,0.73,0,1,0-1.46,0v1.44A0.73,0.73,0,0,0,27,22.35Z" transform="translate(-4.3 -8.35)"/><path class="cls-1" d="M29.11,22.35a0.73,0.73,0,0,0,.73-0.73V20.18a0.73,0.73,0,1,0-1.46,0v1.44A0.73,0.73,0,0,0,29.11,22.35Z" transform="translate(-4.3 -8.35)"/><path class="cls-1" d="M27,27.43a0.73,0.73,0,0,0,.73-0.73V25.26a0.73,0.73,0,1,0-1.46,0V26.7A0.73,0.73,0,0,0,27,27.43Z" transform="translate(-4.3 -8.35)"/><path class="cls-1" d="M29.11,27.43a0.73,0.73,0,0,0,.73-0.73V25.26a0.73,0.73,0,0,0-1.46,0V26.7A0.73,0.73,0,0,0,29.11,27.43Z" transform="translate(-4.3 -8.35)"/><path class="cls-1" d="M27,32.59a0.73,0.73,0,0,0,.73-0.73V30.42a0.73,0.73,0,1,0-1.46,0v1.44A0.73,0.73,0,0,0,27,32.59Z" transform="translate(-4.3 -8.35)"/><path class="cls-1" d="M29.11,32.59a0.73,0.73,0,0,0,.73-0.73V30.42a0.73,0.73,0,0,0-1.46,0v1.44A0.73,0.73,0,0,0,29.11,32.59Z" transform="translate(-4.3 -8.35)"/><path class="cls-1" d="M27,37.68a0.73,0.73,0,0,0,.73-0.73V35.51a0.73,0.73,0,1,0-1.46,0v1.44A0.73,0.73,0,0,0,27,37.68Z" transform="translate(-4.3 -8.35)"/><path class="cls-1" d="M29.11,37.68a0.73,0.73,0,0,0,.73-0.73V35.51a0.73,0.73,0,1,0-1.46,0v1.44A0.73,0.73,0,0,0,29.11,37.68Z" transform="translate(-4.3 -8.35)"/></svg>