<svg id="Ebene_1" data-name="Ebene 1" xmlns="http://www.w3.org/2000/svg" viewBox="0 0 29.69 33.12"><defs><style>.cls-1{fill:#ffffff;}</style></defs><title>smartenergy</title><path class="cls-1" d="M34.36,12.39L36.48,8.7A0.54,0.54,0,0,0,36,7.9H25.72a0.53,0.53,0,0,0-.5.34L24.65,9.66a14.85,14.85,0,0,0-5.36,28.19l-0.94,2.45a0.54,0.54,0,0,0,.91.54l1.87-2.25A14.85,14.85,0,0,0,34.36,12.39Zm-0.71,10.7a0.53,0.53,0,0,0-.49-0.31H28.36l4.3-7.46a11.48,11.48,0,0,1-9.16,20.41L33.57,23.66A0.54,0.54,0,0,0,33.64,23.09ZM26.08,9h9L27,23a0.53,0.53,0,0,0,0,.54,0.54,0.54,0,0,0,.46.27H32L20.57,37.59a0.32,0.32,0,0,0,0-.06L25.07,25.8A0.54,0.54,0,0,0,25,25.3a0.53,0.53,0,0,0-.44-0.23H19.64ZM18.41,25.9a0.53,0.53,0,0,0,.45.24h4.94L20.5,34.69a11.48,11.48,0,0,1,2.71-21.43L18.35,25.41A0.53,0.53,0,0,0,18.41,25.9Zm-6.46-1.44A13.76,13.76,0,0,1,24.2,10.77l-0.52,1.3A12.56,12.56,0,0,0,20.12,35.7l-0.44,1.14A13.77,13.77,0,0,1,11.95,24.46ZM25.72,38.23a13.75,13.75,0,0,1-3.84-.54l0.86-1A12.56,12.56,0,0,0,33.21,14.38l0.61-1.06A13.77,13.77,0,0,1,25.72,38.23Z" transform="translate(-10.87 -7.9)"/></svg>