<svg id="Ebene_1" data-name="Ebene 1" xmlns="http://www.w3.org/2000/svg" viewBox="0 0 32.05 32.05"><defs><style>.cls-1{fill:#ffffff;}</style></defs><title>smartcity</title><path class="cls-1" d="M32.28,39.15h-15a0.53,0.53,0,0,0-.53.53v1.07a0.53,0.53,0,1,0,1.07,0V40.22H32.28A0.53,0.53,0,0,0,32.28,39.15Z" transform="translate(-9.31 -9.24)"/><path class="cls-1" d="M21.06,22.59a0.53,0.53,0,0,0,.54.53h2.14a0.53,0.53,0,0,0,.53-0.53V19.39a0.53,0.53,0,0,0-.53-0.53H21.6a0.53,0.53,0,0,0-.54.53v3.21h0Zm1.07-2.67H23.2v2.14H22.13V19.92Z" transform="translate(-9.31 -9.24)"/><path class="cls-1" d="M16.26,15.65H9.85a0.53,0.53,0,0,0-.53.53V26.87a0.53,0.53,0,1,0,1.07,0V16.72h5.87A0.53,0.53,0,1,0,16.26,15.65Z" transform="translate(-9.31 -9.24)"/><path class="cls-1" d="M35,35.41a0.53,0.53,0,0,0,.53.53h2.14a0.53,0.53,0,0,0,.53-0.53V32.21a0.53,0.53,0,0,0-.53-0.53H35.49a0.54,0.54,0,0,0-.53.53v3.21ZM36,32.74h1.07v2.14H36V32.74Z" transform="translate(-9.31 -9.24)"/><path class="cls-1" d="M12,28.47c-2.64,0-2.67,6.87-2.67,6.94A2.67,2.67,0,0,0,11.45,38v2.72a0.53,0.53,0,1,0,1.07,0V38a2.67,2.67,0,0,0,2.13-2.62C14.65,35.34,14.62,28.47,12,28.47ZM12,37a1.61,1.61,0,0,1-1.6-1.6c0-2.66.71-5.87,1.6-5.87s1.6,3.21,1.6,5.87A1.6,1.6,0,0,1,12,37Z" transform="translate(-9.31 -9.24)"/><path class="cls-1" d="M15.19,25.26H13.05a0.53,0.53,0,0,0-.53.54v1.07a0.53,0.53,0,1,0,1.07,0V26.33h1.07V29a0.53,0.53,0,1,0,1.07,0V25.8A0.54,0.54,0,0,0,15.19,25.26Z" transform="translate(-9.31 -9.24)"/><path class="cls-1" d="M35.49,23.13h2.14a0.53,0.53,0,0,0,.53-0.53V19.39a0.53,0.53,0,0,0-.53-0.53H35.49a0.53,0.53,0,0,0-.53.53v3.21A0.53,0.53,0,0,0,35.49,23.13ZM36,19.92h1.07v2.14H36V19.92Z" transform="translate(-9.31 -9.24)"/><path class="cls-1" d="M15.19,18.85H13.05a0.53,0.53,0,0,0-.53.53v3.21a0.53,0.53,0,0,0,.53.53h2.14a0.53,0.53,0,0,0,.53-0.53V19.39A0.53,0.53,0,0,0,15.19,18.85Zm-0.54,3.2H13.59V19.92h1.07v2.14h0Z" transform="translate(-9.31 -9.24)"/><path class="cls-1" d="M26.41,22.59a0.53,0.53,0,0,0,.53.53h2.14a0.53,0.53,0,0,0,.53-0.53V19.39a0.53,0.53,0,0,0-.53-0.53H26.94a0.53,0.53,0,0,0-.53.53v3.21h0Zm1.07-2.67h1.07v2.14H27.47V19.92h0Z" transform="translate(-9.31 -9.24)"/><path class="cls-1" d="M40.83,15.65H34.42a0.53,0.53,0,0,0,0,1.07h5.88V38.18a1.63,1.63,0,0,0-.53-0.1l-0.28,0a2.13,2.13,0,0,0-3.72,0l-0.28,0a1.6,1.6,0,0,0,0,3.2h4.27a1.61,1.61,0,0,0,1.6-1.6V16.18A0.53,0.53,0,0,0,40.83,15.65ZM39.76,40.22H35.49a0.53,0.53,0,1,1,0-1.07,0.52,0.52,0,0,1,.29.09,0.53,0.53,0,0,0,.81-0.33,1.06,1.06,0,0,1,2.07,0,0.53,0.53,0,0,0,.81.33,0.54,0.54,0,0,1,.82.45A0.54,0.54,0,0,1,39.76,40.22Z" transform="translate(-9.31 -9.24)"/><path class="cls-1" d="M26.94,16.72h2.14a0.53,0.53,0,0,0,.53-0.54V13a0.53,0.53,0,0,0-.53-0.53H26.94a0.53,0.53,0,0,0-.53.53v3.2A0.53,0.53,0,0,0,26.94,16.72Zm0.54-3.2h1.07v2.14H27.47V13.51h0Z" transform="translate(-9.31 -9.24)"/><path class="cls-1" d="M26.41,29a0.53,0.53,0,0,0,.53.54h2.14A0.53,0.53,0,0,0,29.61,29V25.8a0.53,0.53,0,0,0-.53-0.54H26.94a0.54,0.54,0,0,0-.53.54V29h0Zm1.07-2.67h1.07v2.14H27.47V26.33h0Z" transform="translate(-9.31 -9.24)"/><path class="cls-1" d="M21.6,16.72h2.14a0.53,0.53,0,0,0,.53-0.54V13a0.53,0.53,0,0,0-.53-0.53H21.6a0.53,0.53,0,0,0-.54.53v3.2A0.53,0.53,0,0,0,21.6,16.72Zm0.53-3.2H23.2v2.14H22.13V13.51Z" transform="translate(-9.31 -9.24)"/><path class="cls-1" d="M25,35a0.54,0.54,0,0,0,0,.76,0.53,0.53,0,0,0,.91-0.38A0.57,0.57,0,0,0,25.72,35,0.56,0.56,0,0,0,25,35Z" transform="translate(-9.31 -9.24)"/><path class="cls-1" d="M21.06,29a0.53,0.53,0,0,0,.54.54h2.14A0.53,0.53,0,0,0,24.27,29V25.8a0.53,0.53,0,0,0-.53-0.54H21.6a0.54,0.54,0,0,0-.54.54V29h0Zm1.07-2.67H23.2v2.14H22.13V26.33Z" transform="translate(-9.31 -9.24)"/><path class="cls-1" d="M20,32.21a0.53,0.53,0,0,0,.54.53h1.6v4.81a0.54,0.54,0,1,0,1.07,0V32.74h4.27v4.81a0.53,0.53,0,1,0,1.07,0V32.74h1.6a0.53,0.53,0,1,0,0-1.07H20.53A0.54,0.54,0,0,0,20,32.21Z" transform="translate(-9.31 -9.24)"/><path class="cls-1" d="M35,29a0.53,0.53,0,0,0,.53.54h2.14A0.53,0.53,0,0,0,38.16,29V25.8a0.53,0.53,0,0,0-.53-0.54H35.49a0.54,0.54,0,0,0-.53.54V29ZM36,26.33h1.07v2.14H36V26.33Z" transform="translate(-9.31 -9.24)"/><path class="cls-1" d="M32.28,9.24H18.39a0.53,0.53,0,0,0-.53.53V37.55a0.54,0.54,0,1,0,1.07,0V10.31H31.75V37.55a0.53,0.53,0,1,0,1.07,0V9.78A0.53,0.53,0,0,0,32.28,9.24Z" transform="translate(-9.31 -9.24)"/></svg>