<svg id="Ebene_1" data-name="Ebene 1" xmlns="http://www.w3.org/2000/svg" viewBox="0 0 37.25 21.14"><defs><style>.cls-1{fill:#fff;}</style></defs><title>transportation</title><path class="cls-1" d="M14,29.43a1.24,1.24,0,1,0,1.24,1.24A1.25,1.25,0,0,0,14,29.43Z" transform="translate(-6.49 -13.89)"/><path class="cls-1" d="M36.34,29.43a1.24,1.24,0,1,0,1.24,1.24A1.25,1.25,0,0,0,36.34,29.43Z" transform="translate(-6.49 -13.89)"/><path class="cls-1" d="M43.73,28.81V23.53A1.54,1.54,0,0,0,42.18,22H39.63a5.48,5.48,0,0,1-4.54-2.55L33,15.94a4.33,4.33,0,0,0-3.67-2.05H16.62A4.41,4.41,0,0,0,13,15.94L9.85,21A2.09,2.09,0,0,1,8,22a1.8,1.8,0,0,0-1.12.44,1.78,1.78,0,0,0-.44,1.12v5.59A2.21,2.21,0,0,0,8.67,31.3h1a4.35,4.35,0,0,0,8.62,0H32a4.35,4.35,0,0,0,8.62,0h.67A2.4,2.4,0,0,0,43.73,28.81Zm-27.3-8.71V17.62h8.08v2.49Zm9.33-2.49h6.68L34,20.11H25.76ZM14,33.78a3.11,3.11,0,1,1,3.11-3.11A3.08,3.08,0,0,1,14,33.78Zm22.38,0a3.11,3.11,0,1,1,3.11-3.11A3.08,3.08,0,0,1,36.34,33.78Zm4.91-3.73h-.6a4.32,4.32,0,0,0-4.31-3.73h-.06A4.35,4.35,0,0,0,32,30.05H18.26a4.32,4.32,0,0,0-3.9-3.71h-.82a4.32,4.32,0,0,0-3.9,3.71h-1a1,1,0,0,1-.93-.93v-2.8H9.6a.62.62,0,1,0,0-1.24H7.74V23.53c0-.06,0-.12.12-.18a.32.32,0,0,1,.25-.13,3.35,3.35,0,0,0,2.8-1.55l3.11-5a3.06,3.06,0,0,1,2.61-1.49H29.31a2.83,2.83,0,0,1,2.37,1.24H16.31A1.11,1.11,0,0,0,15.2,17.5v2.73a1.12,1.12,0,0,0,1.12,1.12H35a6.57,6.57,0,0,0,4.66,1.93h2.55a.29.29,0,0,1,.31.31v1.49h-1.8a.62.62,0,0,0,0,1.24h1.8v2.49A1.25,1.25,0,0,1,41.25,30.05Z" transform="translate(-6.49 -13.89)"/><path class="cls-1" d="M28.25,23.22H25.14a.62.62,0,1,0,0,1.24h2.49v.62a.62.62,0,1,0,1.24,0V23.84A.59.59,0,0,0,28.25,23.22Z" transform="translate(-6.49 -13.89)"/></svg>